<svg xmlns="http://www.w3.org/2000/svg" viewBox="0 0 32 40" version="1.1" xml:space="preserve" fill-rule="evenodd" clip-rule="evenodd" stroke-miterlimit="1.414" x="0px" y="0px"><g stroke-linejoin="round" class="nc-icon-wrapper" fill="#000000"><path d="M27 11a.995.995 0 0 1-.989-1c0-.552.443-1 .989-1s.989.448.989 1-.443 1-.989 1m-5.439 6H17.5v-2.984l4.878.005L21.561 17zM17.5 22v-3h3.512l-.823 3H17.5zM5.99 19H9.5v3H6.812l-.822-3zm3.51-4.992V17H5.442l-.82-2.997 4.878.005zm6 7.992h-4v-3h4v3zm-4-5v-2.99l4 .004V17h-4zM27 7a2.998 2.998 0 0 0-2.989 3c0 .457.11.885.293 1.272l-.757.75L2 12l3.286 12h16.428l2.768-10.089 1.229-1.217c.392.19.825.306 1.289.306a2.998 2.998 0 0 0 2.989-3c0-1.654-1.341-3-2.989-3" fill-rule="nonzero"/><path d="M19 29a.994.994 0 0 1-.989-1c0-.553.443-1 .989-1s.989.447.989 1c0 .553-.443 1-.989 1m0-4a2.998 2.998 0 0 0-2.989 3c0 1.654 1.341 3 2.989 3a2.998 2.998 0 0 0 2.989-3c0-1.654-1.341-3-2.989-3" fill-rule="nonzero"/><path d="M8 29a.994.994 0 0 1-.989-1c0-.553.443-1 .989-1s.989.447.989 1c0 .553-.443 1-.989 1m0-4a2.998 2.998 0 0 0-2.989 3c0 1.654 1.341 3 2.989 3a2.998 2.998 0 0 0 2.989-3c0-1.654-1.341-3-2.989-3" fill-rule="nonzero"/><path d="M15.826 1.5c-.899 0-2.34 1.336-2.34 1.336S12.084 1.5 11.176 1.5C9.625 1.5 8.5 2.652 8.5 4.24c0 2.342 4.774 6.26 4.972 6.26.198 0 5.028-3.974 5.028-6.26 0-1.588-1.124-2.74-2.674-2.74" fill-rule="nonzero"/></g><text x="0" y="47" fill="#000000" font-size="5px" font-weight="bold" font-family="'Helvetica Neue', Helvetica, Arial-Unicode, Arial, Sans-serif">Created by Jiri Plistil</text><text x="0" y="52" fill="#000000" font-size="5px" font-weight="bold" font-family="'Helvetica Neue', Helvetica, Arial-Unicode, Arial, Sans-serif">from the Noun Project</text></svg>